<?xml version="1.0" standalone="no"?>
<!DOCTYPE svg PUBLIC "-//W3C//DTD SVG 20010904//EN"
 "http://www.w3.org/TR/2001/REC-SVG-20010904/DTD/svg10.dtd">
<svg version="1.0" xmlns="http://www.w3.org/2000/svg"
 width="1024.000000pt" height="1024.000000pt" viewBox="0 0 1024.000000 1024.000000"
 preserveAspectRatio="xMidYMid meet">

<g transform="translate(0.000000,1024.000000) scale(0.100000,-0.100000)"
fill="#3196ff" stroke="none">
<path d="M1870 9474 c-338 -33 -675 -231 -877 -514 -126 -178 -194 -354 -223
-580 -8 -60 -10 -1019 -7 -3310 4 -3503 -1 -3244 56 -3444 30 -104 119 -279
191 -374 60 -80 156 -177 225 -227 22 -17 42 -32 45 -36 3 -3 25 -19 50 -35
113 -75 216 -115 445 -176 76 -20 6563 -19 6680 1 258 44 536 198 697 384 100
117 108 127 108 136 0 5 4 11 8 13 8 3 82 124 82 134 0 2 11 27 25 56 14 28
25 59 25 68 0 9 4 20 9 25 5 6 22 62 37 125 l29 115 0 3290 c0 2545 -3 3299
-12 3330 -7 22 -19 67 -27 100 -57 234 -208 476 -391 625 -176 144 -324 216
-560 273 l-90 22 -3245 1 c-1785 0 -3261 -1 -3280 -2z m4201 -1437 c243 -43
337 -67 509 -132 88 -33 256 -121 291 -151 8 -8 19 -14 23 -14 4 0 12 -5 19
-10 7 -6 44 -33 82 -62 161 -118 362 -358 449 -535 122 -249 168 -413 207
-738 15 -127 19 -205 15 -310 -5 -157 -21 -328 -35 -395 -6 -25 -15 -72 -22
-105 -17 -85 -84 -282 -131 -384 -33 -72 -139 -254 -158 -271 -3 -3 -25 -32
-49 -65 -79 -108 -247 -264 -377 -351 -108 -72 -297 -174 -324 -174 -6 0 -18
-4 -28 -9 -84 -46 -269 -92 -532 -132 -137 -21 -185 -23 -877 -27 l-733 -4 0
-983 c0 -541 -3 -990 -6 -999 -6 -14 -83 -16 -774 -16 -691 0 -768 2 -774 16
-9 22 -7 5859 1 5868 4 4 712 5 1573 3 1348 -4 1577 -6 1651 -20z"/>
<path d="M4400 6848 c0 -2 -1 -331 -3 -731 l-2 -728 590 4 c443 3 601 7 635
17 25 7 73 21 107 31 174 52 308 188 368 374 51 158 53 474 3 610 -75 204
-172 301 -383 384 -79 32 -120 34 -712 38 -332 3 -603 3 -603 1z"/>
</g>
</svg>
